<?xml version="1.0" standalone="no"?><!DOCTYPE svg PUBLIC "-//W3C//DTD SVG 1.1//EN" "http://www.w3.org/Graphics/SVG/1.1/DTD/svg11.dtd"><svg t="1611319365831" class="icon" viewBox="0 0 1024 1024" version="1.1" xmlns="http://www.w3.org/2000/svg" p-id="1702" xmlns:xlink="http://www.w3.org/1999/xlink" width="64" height="64"><defs><style type="text/css"></style></defs><path d="M875.6736 244.51584L347.10528 125.10208a97.01376 97.01376 0 0 0-114.80576 70.784l-11.89376 47.616H166.46144A94.94528 94.94528 0 0 0 71.68 338.40128v467.82976A94.9504 94.9504 0 0 0 166.46144 901.12h696.19712A94.9504 94.9504 0 0 0 957.44 806.23104V338.40128a94.9248 94.9248 0 0 0-81.7664-93.88544zM284.54912 208.96256a42.85952 42.85952 0 0 1 50.688-31.2576l291.3024 65.80736h-350.6176zM166.46144 297.43104h696.19712c1.12128 0 2.22208 0.08192 3.32288 0.16896l0.86016 0.19456a26.80832 26.80832 0 0 0 4.50048 0.5888 41.01632 41.01632 0 0 1 32.256 40.02304v72.91392H125.53728V338.40128a40.99584 40.99584 0 0 1 40.92416-40.97024zM862.65856 847.2064H166.46144a40.99584 40.99584 0 0 1-40.92416-40.96v-340.992h778.04544v340.992a40.99584 40.99584 0 0 1-40.92416 40.96z" fill="#d81e06" p-id="1703"></path><path d="M787.0208 780.89728h-167.87456a27.04896 27.04896 0 0 1 0-54.09792h167.87456a27.04896 27.04896 0 0 1 0 54.09792z" fill="#d81e06" p-id="1704"></path></svg>