<?xml version="1.0" standalone="no"?><!DOCTYPE svg PUBLIC "-//W3C//DTD SVG 1.1//EN" "http://www.w3.org/Graphics/SVG/1.1/DTD/svg11.dtd"><svg t="1610517249897" class="icon" viewBox="0 0 1024 1024" version="1.1" xmlns="http://www.w3.org/2000/svg" p-id="6477" xmlns:xlink="http://www.w3.org/1999/xlink" width="64" height="64"><defs><style type="text/css"></style></defs><path d="M568.6272 654.6432c0 15.6672 12.6976 28.4672 28.4672 28.4672h170.7008c15.6672 0 28.4672-12.6976 28.4672-28.4672 0-15.6672-12.6976-28.4672-28.4672-28.4672H597.0944c-15.7696 0.1024-28.4672 12.8-28.4672 28.4672z m-511.6928-313.344h910.2336v455.0656c0 31.4368-25.3952 56.9344-56.9344 56.9344H113.7664c-31.4368 0-56.9344-25.3952-56.9344-56.9344l0.1024-455.0656z m910.1312-113.7664v56.9344H56.9344v-56.9344c0-31.4368 25.4976-56.9344 56.9344-56.9344H910.336c31.3344 0.1024 56.7296 25.6 56.7296 56.9344z" fill="#1296db" p-id="6478"></path></svg>