<?xml version="1.0" standalone="no"?><!DOCTYPE svg PUBLIC "-//W3C//DTD SVG 1.1//EN" "http://www.w3.org/Graphics/SVG/1.1/DTD/svg11.dtd"><svg t="1610516843406" class="icon" viewBox="0 0 1024 1024" version="1.1" xmlns="http://www.w3.org/2000/svg" p-id="3727" xmlns:xlink="http://www.w3.org/1999/xlink" width="64" height="64"><defs><style type="text/css"></style></defs><path d="M890.88 189.952l-614.4-122.368c-3.584-1.024-6.656-1.024-10.24-1.024-72.192 0-132.608 60.928-132.608 132.608v59.904C72.192 271.36 25.6 325.632 25.6 389.632v435.2a132.608 132.608 0 0 0 132.608 132.608H865.28a132.608 132.608 0 0 0 132.608-132.608v-501.76c0.512-64.512-38.4-114.176-107.008-133.12zM262.656 168.96l440.832 87.552H236.032V199.168c0-14.848 12.288-28.16 26.624-30.208z m603.136 686.08H158.208c-16.896 0-30.208-13.824-30.208-30.208v-435.2c0-16.384 13.824-30.208 29.696-30.208H896v465.408c0 16.896-13.824 30.208-30.208 30.208z" fill="#1296db" p-id="3728"></path><path d="M210.432 570.88c-19.456 19.968-19.456 52.736 0 72.704 19.968 19.456 52.736 19.456 72.704 0 19.968-19.968 19.968-52.736 0-72.704-19.968-19.968-52.736-19.968-72.704 0z" fill="#1296db" p-id="3729"></path></svg>