<?xml version="1.0" standalone="no"?><!DOCTYPE svg PUBLIC "-//W3C//DTD SVG 1.1//EN" "http://www.w3.org/Graphics/SVG/1.1/DTD/svg11.dtd"><svg t="1610516828605" class="icon" viewBox="0 0 1024 1024" version="1.1" xmlns="http://www.w3.org/2000/svg" p-id="3590" xmlns:xlink="http://www.w3.org/1999/xlink" width="64" height="64"><defs><style type="text/css"></style></defs><path d="M962.56 336.64l-97.28-203.52c-3.84-8.96-12.8-12.8-20.48-14.08H186.88c-10.24-1.28-20.48 3.84-24.32 14.08L64 336.64c-1.28 1.28-1.28 3.84-1.28 5.12-1.28 2.56-2.56 6.4-2.56 10.24v75.52c7.68 32 28.16 60.16 53.76 78.08V857.6H83.2c-12.8 0-24.32 10.24-24.32 24.32 0 12.8 10.24 24.32 24.32 24.32h855.04c12.8 0 24.32-10.24 24.32-24.32 0-12.8-10.24-24.32-24.32-24.32h-26.88V506.88c24.32-19.2 43.52-46.08 51.2-79.36h1.28v-79.36c1.28-3.84 0-7.68-1.28-11.52zM828.16 166.4l78.08 162.56H743.68L704 166.4h124.16z m-293.12 0h119.04l39.68 162.56H535.04V166.4z m0 259.84v-51.2h162.56v55.04c-14.08 34.56-43.52 55.04-79.36 55.04-37.12 0-69.12-21.76-83.2-55.04v-3.84z m-213.76-51.2H486.4v55.04c0 1.28-28.16 51.2-80.64 55.04-35.84 2.56-66.56-20.48-81.92-51.2-1.28-3.84-1.28-5.12-1.28-5.12v-53.76z m8.96-44.8L369.92 166.4H486.4v162.56H330.24zM198.4 166.4H320l-39.68 162.56H120.32L198.4 166.4zM107.52 375.04h165.12v53.76s1.28-2.56 0 1.28c-11.52 32-43.52 55.04-78.08 55.04-39.68 0-75.52-25.6-87.04-64v-46.08z m53.76 153.6c11.52 2.56 21.76 3.84 33.28 3.84 40.96 0 78.08-19.2 103.68-49.92 25.6 30.72 64 49.92 107.52 49.92 42.24 0 79.36-19.2 104.96-52.48 20.48 25.6 49.92 43.52 81.92 49.92V857.6H161.28V528.64zM862.72 857.6H640V531.2c33.28-5.12 62.72-24.32 83.2-51.2 25.6 32 65.28 52.48 108.8 52.48 10.24 0 20.48-1.28 30.72-3.84V857.6z m53.76-441.6c-10.24 42.24-43.52 69.12-83.2 69.12-37.12 0-85.76-53.76-87.04-55.04v-55.04h170.24v40.96z" p-id="3591"></path><path d="M477.44 597.76c-8.96-8.96-24.32-8.96-34.56 0L275.2 766.72c-8.96 8.96-8.96 24.32 0 34.56 8.96 8.96 24.32 8.96 34.56 0l168.96-168.96c8.96-10.24 8.96-25.6-1.28-34.56zM531.2 706.56c-8.96-8.96-24.32-8.96-34.56 0l-56.32 56.32c-8.96 8.96-8.96 24.32 0 34.56 8.96 8.96 24.32 8.96 34.56 0l56.32-56.32c10.24-10.24 10.24-25.6 0-34.56zM312.32 600.32c-8.96-8.96-24.32-8.96-34.56 0l-56.32 56.32c-8.96 8.96-8.96 24.32 0 34.56 8.96 8.96 24.32 8.96 34.56 0l56.32-56.32c10.24-8.96 10.24-24.32 0-34.56z" p-id="3592"></path><path d="M721.92 670.72m-24.32 0a24.32 24.32 0 1 0 48.64 0 24.32 24.32 0 1 0-48.64 0Z" p-id="3593"></path></svg>