<?xml version="1.0" standalone="no"?><!DOCTYPE svg PUBLIC "-//W3C//DTD SVG 1.1//EN" "http://www.w3.org/Graphics/SVG/1.1/DTD/svg11.dtd"><svg t="1610516927900" class="icon" viewBox="0 0 1024 1024" version="1.1" xmlns="http://www.w3.org/2000/svg" p-id="5674" xmlns:xlink="http://www.w3.org/1999/xlink" width="64" height="64"><defs><style type="text/css"></style></defs><path d="M742.2 898.7c-6.6 0-13.3-1.6-19.3-5L518.7 781.2 320.3 883.7c-13.3 6.9-29.4 5.7-41.6-3-12.2-8.7-18.5-23.5-16.4-38.3l33.2-228L127.6 448c-10.9-10.8-14.6-26.8-9.7-41.3 4.9-14.5 17.7-24.9 32.9-26.8l223.3-27.7 95.3-203.9c6.5-13.9 20.3-22.8 35.6-23 15.3-0.2 29.4 8.3 36.3 22l106.4 211.1L875 397.3c14.8 2.5 26.9 13.1 31.4 27.4s0.6 29.9-10 40.5l-158.8 157 43.9 229c2.9 15.2-3.2 30.8-15.8 39.9-6.9 5.1-15.2 7.6-23.5 7.6zM519.3 695.9c6.7 0 13.3 1.7 19.3 5l148.3 81.7L655 616.3c-2.5-13.1 1.7-26.6 11.2-36L784.7 463l-170.3-29.1c-12.5-2.1-23.3-10.1-29-21.4L507 256.9l-69.8 149.3c-5.8 12.5-17.7 21.1-31.3 22.7l-163.5 20.3 123.8 122.6c9 8.9 13.3 21.6 11.4 34.2l-24.9 170.9 148.2-76.5a40 40 0 0 1 18.4-4.5zM401.1 389.2z" fill="#4a5fe2" p-id="5675"></path></svg>